# xmcd
#
# Track frame offsets: 
#        150
#        18204
#        32366
#        50509
#        67380
#        81307
#        96601
#        116954
#        133643
#        147758
#        166394
#
# Disc length: 2442 seconds
#
# Revision: 0
# Processed by: cddbd v1.5.2PL0 Copyright (c) Steve Scherf et al.
# Submitted via: ExactAudioCopyFreeDBPlugin 1.0
#
DISCID=9e09880b
DTITLE=Trace Adkins - Icon 2
DYEAR=2014
DGENRE=Country
TTITLE0=Honky Tonk Badonkadonk
TTITLE1=Rough and Ready
TTITLE2=(This Ain't) No Thinkin' Thing
TTITLE3=You're Gonna Miss This
TTITLE4=More
TTITLE5=Songs About Me
TTITLE6=Then They Do
TTITLE7=I'm Tryin'
TTITLE8=I Left Something Turned On At Home
TTITLE9=Arlington
TTITLE10=Ladies Love Country Boys
EXTD=
EXTT0=
EXTT1=
EXTT2=
EXTT3=
EXTT4=
EXTT5=
EXTT6=
EXTT7=
EXTT8=
EXTT9=
EXTT10=
PLAYORDER=
